<svg xmlns="http://www.w3.org/2000/svg" viewBox="0 0 86.03 47.92"><defs><style>.cls-1{fill:#1d25a4;}.cls-2{fill:#e43a55;}</style></defs><g id="Capa_2" data-name="Capa 2"><g id="Capa_1-2" data-name="Capa 1"><polygon class="cls-1" points="1.66 39.67 0 47.92 24.84 47.92 27.07 39.67 1.66 39.67"/><path class="cls-2" d="M29.52,30.67l-1.8,8.57h23.9a16.14,16.14,0,0,1-2.08-4.18,16.36,16.36,0,0,1-.8-4.39Z"/><polygon class="cls-2" points="6.48 21.96 4.75 30.67 29.35 30.88 31.81 21.96 6.48 21.96"/><path class="cls-2" d="M33.84,13.39,32,21.92H51.18A17.64,17.64,0,0,1,63,13.39Z"/><path class="cls-1" d="M14.11,0,11.52,8.86H72.58A26.27,26.27,0,0,0,56.59,0Z"/><path class="cls-1" d="M53.78,27.14c.25-.82,2.59-8.16,10.3-11,8.15-3,15,1.67,15.62,2.09A12.63,12.63,0,0,1,76,24.05a12.81,12.81,0,0,1-7.13,3.09Z"/><path class="cls-1" d="M82.52,20.88a19.08,19.08,0,0,1-3.15,5.18,19.48,19.48,0,0,1-5.15,4.28l-20.71.49a15.63,15.63,0,0,0,11,13.68,20.49,20.49,0,0,1,9.59-11.46l11.64.07a14.88,14.88,0,0,0-.17-6.22A14.64,14.64,0,0,0,82.52,20.88Z"/><path class="cls-1" d="M68.3,45.22c1.25-3.2,2.57-4.69,3.58-5.45l2.18-1.61c.71-.27,1.48-.52,2.29-.74a25,25,0,0,1,8.18-.82,13.34,13.34,0,0,1-6.87,6.74,16.71,16.71,0,0,1-4.08,1.52A17.09,17.09,0,0,1,68.3,45.22Z"/></g></g></svg>